<?xml version="1.0" encoding="UTF-8" standalone="no"?>
<svg
   width="1.03in"
   height="1.13in"
   viewBox="0 0 309 339"
   version="1.1"
   id="svg1"
   sodipodi:docname="autograph.svg"
   inkscape:version="1.3.2 (091e20e, 2023-11-25, custom)"
   xmlns:inkscape="http://www.inkscape.org/namespaces/inkscape"
   xmlns:sodipodi="http://sodipodi.sourceforge.net/DTD/sodipodi-0.dtd"
   xmlns="http://www.w3.org/2000/svg"
   xmlns:svg="http://www.w3.org/2000/svg">
  <defs
     id="defs1" />
  <sodipodi:namedview
     id="namedview1"
     pagecolor="#ffffff"
     bordercolor="#666666"
     borderopacity="1.0"
     inkscape:showpageshadow="2"
     inkscape:pageopacity="0.0"
     inkscape:pagecheckerboard="true"
     inkscape:deskcolor="#d1d1d1"
     inkscape:document-units="in"
     inkscape:zoom="10.813053"
     inkscape:cx="49.477238"
     inkscape:cy="54.193759"
     inkscape:window-width="1864"
     inkscape:window-height="1360"
     inkscape:window-x="1913"
     inkscape:window-y="0"
     inkscape:window-maximized="0"
     inkscape:current-layer="svg1" />
  <path
     id="Selection"
     fill="none"
     stroke="black"
     stroke-width="1"
     d="M 240.00,287.00            C 240.89,283.93 241.68,281.22 241.91,278.00              241.91,278.00 236.42,228.00 236.42,228.00              236.42,228.00 228.91,181.00 228.91,181.00              228.91,181.00 220.28,158.00 220.28,158.00              220.28,158.00 213.46,143.00 213.46,143.00              213.46,143.00 208.67,128.83 208.67,128.83              208.67,128.83 202.06,113.00 202.06,113.00              194.70,93.57 190.35,73.36 188.04,52.83              188.04,52.83 186.00,37.00 186.00,37.00              185.92,29.82 185.96,18.76 188.22,12.02              189.26,8.91 191.83,5.10 195.71,6.64              199.55,8.16 200.32,17.37 201.29,21.00              201.29,21.00 203.49,28.00 203.49,28.00              203.49,28.00 207.90,49.00 207.90,49.00              207.90,49.00 211.39,63.00 211.39,63.00              211.39,63.00 216.77,85.00 216.77,85.00              216.77,85.00 224.80,123.00 224.80,123.00              224.80,123.00 234.75,173.00 234.75,173.00              234.75,173.00 256.86,224.00 256.86,224.00              256.86,224.00 278.15,275.00 278.15,275.00              281.36,282.47 286.55,288.18 283.00,296.00              283.00,296.00 281.00,296.00 281.00,296.00              275.82,287.96 274.54,281.82 270.53,274.00              267.45,268.00 262.66,260.93 264.00,254.00              258.64,251.05 258.74,246.33 256.39,241.00              256.39,241.00 245.87,218.00 245.87,218.00              243.77,213.47 243.57,210.51 240.00,207.00              240.00,207.00 242.71,226.00 242.71,226.00              242.71,226.00 244.28,242.00 244.28,242.00              244.28,242.00 247.00,256.00 247.00,256.00              247.00,256.00 247.00,264.00 247.00,264.00              247.00,264.00 248.92,275.00 248.92,275.00              248.93,281.61 245.94,295.61 237.10,295.18              234.07,295.03 232.31,291.34 231.04,289.00              228.35,284.02 223.81,271.77 219.79,268.56              217.11,266.42 203.94,263.36 200.00,262.55              200.00,262.55 162.00,255.00 162.00,255.00              164.14,263.48 167.47,278.70 165.06,287.00              162.52,295.78 154.23,299.06 147.09,292.77              139.93,286.47 132.69,271.73 128.26,263.00              126.55,259.63 124.13,251.79 121.61,249.93              114.54,244.73 99.00,250.20 91.00,248.00              93.14,242.03 95.66,242.10 99.96,237.91              103.51,234.44 109.85,224.96 110.52,220.00              111.00,216.44 108.87,212.36 107.69,209.00              107.69,209.00 100.50,188.00 100.50,188.00              100.50,188.00 73.68,117.00 73.68,117.00              70.73,109.00 64.83,90.16 59.00,85.00              57.92,93.04 57.01,93.07 57.00,102.00              57.00,102.00 57.00,114.00 57.00,114.00              57.05,144.96 69.25,183.40 78.49,213.00              78.49,213.00 91.28,258.00 91.28,258.00              91.28,258.00 105.14,306.00 105.14,306.00              106.31,310.05 110.50,318.94 107.98,322.57              104.80,327.14 101.26,322.48 100.25,319.00              100.25,319.00 88.91,282.00 88.91,282.00              88.91,282.00 71.73,219.00 71.73,219.00              71.73,219.00 59.04,178.00 59.04,178.00              56.12,170.39 52.37,161.91 48.09,155.00              44.77,149.65 40.03,145.01 38.00,139.00              48.20,134.50 49.56,142.36 55.00,149.00              55.00,149.00 52.32,135.00 52.32,135.00              50.91,126.51 49.43,105.61 49.74,97.00              49.98,90.72 50.86,70.26 61.96,75.35              65.91,77.16 68.37,82.19 69.99,86.00              69.99,86.00 79.67,111.00 79.67,111.00              79.67,111.00 103.55,175.00 103.55,175.00              103.55,175.00 115.00,205.00 115.00,205.00              115.00,205.00 121.26,172.00 121.26,172.00              122.88,163.36 125.06,154.69 125.31,145.84              125.57,136.86 123.51,134.85 121.03,127.00              121.03,127.00 118.60,118.17 118.60,118.17              118.60,118.17 114.82,110.00 114.82,110.00              114.82,110.00 109.28,93.00 109.28,93.00              109.28,93.00 100.63,67.00 100.63,67.00              99.56,63.73 99.45,60.29 104.00,60.29              109.35,60.29 110.83,68.03 112.45,72.00              115.64,79.83 124.97,100.17 131.00,105.00              131.00,105.00 132.10,83.00 132.10,83.00              132.10,83.00 133.16,77.00 133.16,77.00              133.16,77.00 133.16,71.00 133.16,71.00              133.16,71.00 135.78,40.99 135.78,40.99              135.78,40.99 139.97,17.00 139.97,17.00              141.12,13.90 143.28,10.45 147.00,10.45              151.96,10.45 153.75,16.12 154.85,20.00              154.85,20.00 161.88,50.00 161.88,50.00              161.88,50.00 180.74,127.00 180.74,127.00              180.74,127.00 193.43,170.00 193.43,170.00              193.43,170.00 197.00,182.00 197.00,182.00              197.00,182.00 201.00,180.49 201.00,180.49              203.28,179.95 208.58,180.06 206.83,183.91              205.34,187.19 200.98,186.96 198.00,187.00              198.00,187.00 214.28,233.00 214.28,233.00              214.28,233.00 221.34,249.00 221.34,249.00              221.34,249.00 229.48,260.00 229.48,260.00              229.48,260.00 229.48,270.00 229.48,270.00              229.48,270.00 238.00,287.00 238.00,287.00              238.00,287.00 240.00,287.00 240.00,287.00 Z            M 148.00,23.00            C 148.00,23.00 146.00,23.00 146.00,23.00              141.00,36.70 138.09,74.96 136.91,91.00              136.37,98.36 133.50,109.84 135.65,117.00              136.89,121.16 146.78,136.38 149.68,141.00              149.68,141.00 172.58,179.00 172.58,179.00              172.58,179.00 192.67,210.00 192.67,210.00              196.39,215.58 199.68,221.81 205.00,226.00              205.00,226.00 202.11,218.00 202.11,218.00              202.11,218.00 199.01,207.00 199.01,207.00              199.01,207.00 195.70,199.00 195.70,199.00              195.70,199.00 190.11,180.00 190.11,180.00              190.11,180.00 186.89,171.00 186.89,171.00              186.89,171.00 178.32,140.09 178.32,140.09              178.32,140.09 170.21,113.00 170.21,113.00              170.21,113.00 169.09,105.00 169.09,105.00              169.09,105.00 164.76,93.00 164.76,93.00              164.76,93.00 155.19,51.00 155.19,51.00              155.19,51.00 148.00,23.00 148.00,23.00 Z            M 195.00,23.00            C 192.37,29.64 194.66,47.57 195.73,55.00              199.08,78.25 203.42,97.06 212.20,119.00              214.64,125.09 218.26,136.28 222.00,141.00              222.00,141.00 218.00,121.00 218.00,121.00              218.00,121.00 209.66,82.00 209.66,82.00              209.66,82.00 207.21,67.00 207.21,67.00              207.21,67.00 204.44,59.00 204.44,59.00              204.44,59.00 195.00,23.00 195.00,23.00 Z            M 122.00,106.00            C 122.00,106.00 120.00,106.00 120.00,106.00              120.91,111.80 123.87,120.83 128.00,125.00              127.74,113.67 124.18,115.14 122.00,106.00 Z            M 135.00,128.00            C 135.00,128.00 133.00,128.00 133.00,128.00              133.00,128.00 132.31,142.00 132.31,142.00              132.31,142.00 135.78,153.00 135.78,153.00              135.78,153.00 137.87,162.00 137.87,162.00              137.87,162.00 144.09,181.00 144.09,181.00              144.09,181.00 147.15,194.00 147.15,194.00              147.15,194.00 161.00,251.00 161.00,251.00              161.00,251.00 218.00,261.00 218.00,261.00              216.04,252.99 203.52,238.80 198.42,231.00              198.42,231.00 172.43,192.00 172.43,192.00              172.43,192.00 154.95,163.00 154.95,163.00              150.81,156.39 136.62,133.99 135.00,128.00 Z            M 131.00,158.00            C 127.64,162.54 127.50,173.16 126.40,179.00              126.40,179.00 121.57,207.00 121.57,207.00              121.03,210.18 119.34,216.28 119.49,219.00              119.72,222.95 122.56,230.26 124.15,234.00              125.30,236.71 127.50,243.47 129.51,245.15              131.51,246.82 134.54,246.87 137.00,247.28              137.00,247.28 153.00,250.00 153.00,250.00              153.00,250.00 149.08,227.00 149.08,227.00              149.08,227.00 142.84,201.00 142.84,201.00              142.84,201.00 137.91,179.96 137.91,179.96              137.91,179.96 135.13,172.00 135.13,172.00              135.13,172.00 131.00,158.00 131.00,158.00 Z            M 116.00,231.00            C 116.00,231.00 114.00,231.00 114.00,231.00              114.00,231.00 108.00,243.00 108.00,243.00              108.00,243.00 120.00,244.00 120.00,244.00              120.00,244.00 116.00,231.00 116.00,231.00 Z            M 156.00,290.00            C 160.94,281.88 158.51,271.88 156.80,263.00              156.24,260.09 156.03,255.85 153.57,253.93              151.16,252.05 135.64,250.08 132.00,250.00              133.83,261.68 146.46,283.15 156.00,290.00 Z"
     style="fill:#ffffff;fill-opacity:0.55000001;stroke:#ffffff;stroke-opacity:0.55000001" />
</svg>
